<?xml version="1.0" encoding="utf-8"?>
<!-- Generator: Adobe Illustrator 23.0.6, SVG Export Plug-In . SVG Version: 6.00 Build 0)  -->
<svg version="1.1" id="Layer_1" xmlns="http://www.w3.org/2000/svg" xmlns:xlink="http://www.w3.org/1999/xlink" x="0px" y="0px"
	 viewBox="0 0 806.7 150" style="enable-background:new 0 0 806.7 150;" xml:space="preserve">
<style type="text/css">
	.st0{fill:#FFFFFF;}
	.st1{fill:none;stroke:#FFFFFF;stroke-width:2;stroke-miterlimit:10;}
</style>
<title>UNSDG</title>
<g>
	<g id="Layer_1-2">
		<path class="st0" d="M162.9,17.7h3.4v9.4c0,2.2,1.2,3.7,3.7,3.7c2.4,0,3.6-1.5,3.6-3.7v-9.4h3.4v9.5c0,3.9-2.2,6.6-7,6.6
			s-7.1-2.7-7.1-6.6L162.9,17.7L162.9,17.7z"/>
		<polygon class="st0" points="185.9,22.9 185.9,33.5 182.5,33.5 182.5,17.7 186,17.7 193.3,27.9 193.3,17.7 196.6,17.7 196.6,33.5 
			193.4,33.5 		"/>
		<rect x="202.1" y="17.7" class="st0" width="3.4" height="15.8"/>
		<polygon class="st0" points="214.6,20.6 210,20.6 210,17.7 222.6,17.7 222.6,20.6 218,20.6 218,33.5 214.6,33.5 		"/>
		<polygon class="st0" points="227.1,17.7 238.3,17.7 238.3,20.6 230.5,20.6 230.5,24 238.2,24 238.2,26.9 230.5,26.9 230.5,30.6 
			238.3,30.6 238.3,33.5 227.1,33.5 		"/>
		<path class="st0" d="M249.5,30.5c2.6,0.1,4.8-1.9,4.9-4.5c0-0.1,0-0.3,0-0.4c0-2.8-1.7-4.9-4.9-4.9h-2.9v9.9h2.9V30.5z
			 M243.3,17.7h6.2c4.9,0,8.4,3.1,8.4,7.9s-3.4,7.9-8.4,7.9h-6.2V17.7z"/>
		<polygon class="st0" points="274.5,22.9 274.5,33.5 271.1,33.5 271.1,17.7 274.6,17.7 281.9,27.9 281.9,17.7 285.3,17.7 
			285.3,33.5 282,33.5 		"/>
		<path class="st0" d="M294.7,27.8h5.2l-2.6-7.2L294.7,27.8z M300.8,30.7h-7.1l-1,2.7H289l6.1-15.8h4.2l6.1,15.8h-3.7L300.8,30.7z"
			/>
		<polygon class="st0" points="311.4,20.6 306.8,20.6 306.8,17.7 319.4,17.7 319.4,20.6 314.8,20.6 314.8,33.5 311.4,33.5 		"/>
		<rect x="323.9" y="17.7" class="st0" width="3.4" height="15.8"/>
		<path class="st0" d="M340.3,20.4c-2.9,0-4.8,2.2-4.8,5.2c0,2.9,1.9,5.2,4.8,5.2s4.8-2.2,4.8-5.2C345.1,22.6,343.2,20.4,340.3,20.4
			 M340.3,17.4c4.4-0.2,8.1,3.2,8.3,7.6c0,0.2,0,0.4,0,0.6c0,4.6-3.8,8.2-8.3,8.2s-8.1-3.7-8.2-8.2c-0.1-4.4,3.3-8,7.7-8.2
			C339.9,17.4,340.1,17.4,340.3,17.4"/>
		<polygon class="st0" points="356.6,22.9 356.6,33.5 353.3,33.5 353.3,17.7 356.7,17.7 364.1,27.9 364.1,17.7 367.4,17.7 
			367.4,33.5 364.2,33.5 		"/>
		<path class="st0" d="M373.7,28.7c1.3,1.4,3.1,2.1,5,2.1c1.8,0,2.7-0.9,2.7-1.8c0-1.2-1.4-1.6-3.2-2c-2.6-0.6-5.9-1.3-5.9-4.8
			c0-2.6,2.3-4.8,6-4.8c2.3-0.1,4.5,0.7,6.2,2.2l-1.9,2.5c-1.2-1.1-2.9-1.7-4.5-1.7c-1.5,0-2.3,0.7-2.3,1.6c0,1.1,1.3,1.4,3.2,1.8
			c2.6,0.6,5.9,1.4,5.9,4.9c0,2.9-2.1,5.1-6.3,5.1c-2.5,0.1-4.9-0.8-6.7-2.5L373.7,28.7z"/>
		<path class="st0" d="M163.7,56c1.3,1.4,3.1,2.1,5,2.1c1.8,0,2.7-0.9,2.7-1.8c0-1.2-1.4-1.6-3.2-2c-2.6-0.6-5.9-1.3-5.9-4.8
			c0-2.6,2.3-4.8,6-4.8c2.3-0.1,4.5,0.7,6.2,2.2l-1.9,2.5c-1.2-1.1-2.9-1.7-4.5-1.7c-1.5,0-2.3,0.7-2.3,1.6c0,1.1,1.3,1.4,3.2,1.8
			c2.6,0.6,5.9,1.4,5.9,4.9c0,2.9-2.1,5.1-6.3,5.1c-2.5,0.1-4.9-0.8-6.7-2.5L163.7,56z"/>
		<path class="st0" d="M179.5,45h3.4v9.4c0,2.2,1.2,3.7,3.7,3.7c2.4,0,3.6-1.5,3.6-3.7V45h3.4v9.5c0,3.9-2.2,6.6-7,6.6
			s-7.1-2.7-7.1-6.6L179.5,45L179.5,45z"/>
		<path class="st0" d="M199.8,56c1.3,1.4,3.1,2.1,5,2.1c1.8,0,2.7-0.9,2.7-1.8c0-1.2-1.4-1.6-3.2-2c-2.6-0.6-5.9-1.3-5.9-4.8
			c0-2.6,2.3-4.8,6-4.8c2.3-0.1,4.5,0.7,6.2,2.2l-1.9,2.5c-1.2-1.1-2.9-1.7-4.5-1.7c-1.5,0-2.3,0.7-2.3,1.6c0,1.1,1.3,1.4,3.2,1.8
			c2.6,0.6,5.9,1.4,5.9,4.9c0,2.9-2.1,5.1-6.3,5.1c-2.5,0.1-4.9-0.8-6.7-2.5L199.8,56z"/>
		<polygon class="st0" points="219.1,48 214.5,48 214.5,45 227.1,45 227.1,48 222.5,48 222.5,60.8 219.1,60.8 		"/>
		<path class="st0" d="M234,55.2h5.2l-2.6-7.2L234,55.2z M240.2,58.1h-7.1l-1,2.7h-3.7l6.1-15.8h4.2l6.1,15.8h-3.7L240.2,58.1z"/>
		<rect x="248.7" y="45" class="st0" width="3.4" height="15.8"/>
		<polygon class="st0" points="260.9,50.2 260.9,60.8 257.5,60.8 257.5,45 261,45 268.3,55.2 268.3,45 271.7,45 271.7,60.8 
			268.4,60.8 		"/>
		<path class="st0" d="M281.1,55.2h5.2l-2.6-7.2L281.1,55.2z M287.2,58.1h-7.1l-1,2.7h-3.7l6.1-15.8h4.2l6.1,15.8h-3.7L287.2,58.1z"
			/>
		<path class="st0" d="M303.4,57.9c1,0.1,1.9-0.6,2-1.6c0-0.1,0-0.2,0-0.3c0-1-0.8-1.8-1.8-1.9c-0.1,0-0.1,0-0.2,0h-4.3v3.7
			L303.4,57.9L303.4,57.9z M303.3,51.3c1,0.1,1.8-0.7,1.8-1.6c0.1-1-0.7-1.8-1.6-1.8c-0.1,0-0.1,0-0.2,0h-4.2v3.5h4.2V51.3z
			 M295.7,45h8.3c3,0,4.5,1.9,4.5,4c0.1,1.7-1.1,3.2-2.7,3.6c1.8,0.4,3.1,2,3,3.9c0,2.4-1.6,4.3-4.6,4.3h-8.6L295.7,45z"/>
		<polygon class="st0" points="313.8,45 317.2,45 317.2,57.8 323.8,57.8 323.8,60.8 313.8,60.8 		"/>
		<polygon class="st0" points="328.6,45 339.7,45 339.7,47.9 331.9,47.9 331.9,51.3 339.6,51.3 339.6,54.2 331.9,54.2 331.9,57.9 
			339.7,57.9 339.7,60.8 328.6,60.8 		"/>
		<path class="st0" d="M169.1,85.2c2.6,0.1,4.8-1.9,4.9-4.5c0-0.1,0-0.3,0-0.4c0-2.8-1.7-4.9-4.9-4.9h-2.9v9.9L169.1,85.2
			L169.1,85.2z M162.9,72.3h6.2c4.9,0,8.4,3.1,8.4,7.9s-3.4,7.9-8.4,7.9h-6.2V72.3z"/>
		<polygon class="st0" points="182.3,72.3 193.4,72.3 193.4,75.2 185.6,75.2 185.6,78.6 193.3,78.6 193.3,81.5 185.6,81.5 
			185.6,85.2 193.4,85.2 193.4,88.1 182.3,88.1 		"/>
		<polygon class="st0" points="196.8,72.3 200.6,72.3 205,84.5 209.3,72.3 213.2,72.3 207.1,88.1 202.9,88.1 		"/>
		<polygon class="st0" points="217,72.3 228.2,72.3 228.2,75.2 220.4,75.2 220.4,78.6 228,78.6 228,81.5 220.4,81.5 220.4,85.2 
			228.2,85.2 228.2,88.1 217,88.1 		"/>
		<polygon class="st0" points="233.2,72.3 236.5,72.3 236.5,85.2 243.2,85.2 243.2,88.1 233.2,88.1 		"/>
		<path class="st0" d="M254.8,75c-2.9,0-4.8,2.2-4.8,5.2c0,2.9,1.9,5.2,4.8,5.2s4.8-2.2,4.8-5.2C259.6,77.3,257.7,75,254.8,75
			 M254.8,72.1c4.5,0,8.1,3.7,8.1,8.2s-3.7,8.1-8.2,8.1c-4.5,0-8.1-3.7-8.1-8.2c-0.1-4.4,3.3-8,7.7-8.2
			C254.4,72.1,254.6,72.1,254.8,72.1"/>
		<path class="st0" d="M274.7,75.2h-3.6v4.4h3.6c1.2,0.1,2.2-0.8,2.3-2c0.1-1.2-0.8-2.2-2-2.3C274.9,75.2,274.8,75.2,274.7,75.2
			 M267.8,72.3h7.4c3.4,0,5.3,2.3,5.3,5.1c0,2.7-1.9,5-5.3,5h-4v5.7h-3.4V72.3z"/>
		<polygon class="st0" points="298.7,76.7 294.2,88.1 292.7,88.1 288.3,76.7 288.3,88.1 284.9,88.1 284.9,72.3 289.6,72.3 
			293.5,82.2 297.3,72.3 302,72.3 302,88.1 298.7,88.1 		"/>
		<polygon class="st0" points="307.5,72.3 318.7,72.3 318.7,75.2 310.9,75.2 310.9,78.6 318.5,78.6 318.5,81.5 310.9,81.5 
			310.9,85.2 318.7,85.2 318.7,88.1 307.5,88.1 		"/>
		<polygon class="st0" points="327.1,77.5 327.1,88.1 323.7,88.1 323.7,72.3 327.2,72.3 334.5,82.5 334.5,72.3 337.8,72.3 
			337.8,88.1 334.6,88.1 		"/>
		<polygon class="st0" points="347,75.3 342.4,75.3 342.4,72.3 355,72.3 355,75.3 350.4,75.3 350.4,88.1 347,88.1 		"/>
		<path class="st0" d="M170.5,99.4c2.6-0.1,5.1,1.2,6.5,3.5l-2.8,1.5c-0.8-1.2-2.2-2-3.7-2c-2.9,0.1-5.1,2.6-4.9,5.4
			c0.1,2.7,2.3,4.8,4.9,4.9c1.2,0,2.4-0.4,3.4-1.2v-1.9h-4.2v-2.9h7.5v6c-1.7,1.9-4.2,3-6.7,3c-4.6,0-8.4-3.2-8.4-8.2
			C162.1,102.6,165.9,99.4,170.5,99.4"/>
		<path class="st0" d="M189.2,102.5h-3.5v4.4h3.5c1.2,0.1,2.3-0.8,2.4-2c0.1-1.2-0.8-2.3-2-2.4C189.5,102.5,189.3,102.5,189.2,102.5
			 M188.1,109.8h-2.5v5.7h-3.4V99.6h7.4c3.3,0,5.3,2.2,5.3,5.1c0.1,2.2-1.3,4.2-3.5,4.7l3.6,6h-3.9L188.1,109.8z"/>
		<path class="st0" d="M207.4,102.4c-2.9,0-4.8,2.2-4.8,5.2c0,2.9,1.9,5.2,4.8,5.2c2.9,0,4.8-2.2,4.8-5.2S210.3,102.4,207.4,102.4
			 M207.4,99.4c4.5,0,8.1,3.7,8.1,8.2s-3.7,8.1-8.2,8.1s-8.1-3.7-8.1-8.2c-0.1-4.4,3.3-8,7.7-8.2C207,99.4,207.2,99.4,207.4,99.4"/>
		<path class="st0" d="M220.4,99.6h3.4v9.4c0,2.2,1.2,3.7,3.7,3.7c2.4,0,3.6-1.5,3.6-3.7v-9.4h3.4v9.5c0,3.9-2.2,6.6-7,6.6
			s-7.1-2.7-7.1-6.6L220.4,99.6L220.4,99.6z"/>
		<path class="st0" d="M246.9,102.5h-3.6v4.4h3.6c1.2,0.1,2.2-0.8,2.3-2s-0.8-2.2-2-2.3C247.1,102.5,247,102.5,246.9,102.5
			 M240,99.6h7.4c3.4,0,5.3,2.3,5.3,5.1c0,2.7-1.9,5-5.3,5h-4v5.7H240V99.6z"/>
		<path class="st0" d="M139.7,73.1c-1.1,2.6-0.6,5.9-2.2,8.2c-0.1-1.3,0.6-2.6,0.7-4c1.2-8.7-6.4-13.9-8.1-21.3
			c-0.1,1.9,0,3.8,0.3,5.7c0.4,9.2,6.5,16.7,4.7,26.3c1.7-2.3,3-4.6,5.1-6.8c7-7.2,8.7-19.4,4.7-28.7
			C146.4,60.4,141.6,66.3,139.7,73.1"/>
		<path class="st0" d="M138.2,52.4c0.1,2.9,0.6,5.9,0.4,8.8c-0.3-1.2-0.6-2.4-0.8-3.6c-1.5-6.6-9.2-9.9-12.4-15.4
			c0.4,1.9,0.9,3.7,1.5,5.6c2.7,7.8,10.8,13.1,11.9,21.6c0.7-8.1,6.4-14.6,4.3-23.4c-1.1-4.4-2.9-8.8-6.3-12.2
			C140.5,39,138.5,46.3,138.2,52.4"/>
		<path class="st0" d="M33.3,109.8c-2.8-7.6-5.2-15.5-11.2-21.6l1.4,3.6c1.4,8,2,16.9,9.3,21.9l-0.1,0.1c-2.4-1-4.2-3-6.3-4.3
			c-6.9-4.4-16.3-6.4-20.2-14.9c1.1,6.2,5.3,11.8,10.4,15.7c6.1,5.4,14.7,5,22.2,7.2C36.3,115.4,34.4,112.8,33.3,109.8"/>
		<path class="st0" d="M24.4,105.8c-5.5-9.4-2.6-22.2-7-32.1c0.6,3.2-0.4,6-0.9,8.9c-1.6,5.6-0.8,12.1,2.4,16.6
			c-1.1-0.5-1.7-1.8-2.4-2.9c-4-7.7-14.1-12-15-21.3c0,3.3,0,6.9,1,9.9C5.3,95.3,16.7,100.6,24.4,105.8"/>
		<path class="st0" d="M57.6,120.8c-10.7-0.5-16.5-12.2-25.2-17.2c3.7,4.4,3.9,10.1,9,13.7c2,1.7,4.6,2.1,6.9,3
			c-2.5,0.2-4.7-0.8-7.2-0.9c-8.3-1-17.8,0-23.9-6.7c2.8,5,7.4,8.8,12.8,10.7C39.6,127,48.4,121.6,57.6,120.8"/>
		<path class="st0" d="M108.8,118.8c-2.8,0.3-5.5,1.2-8.2,1.2c0.1-0.1,0.2-0.3,0.3-0.2c9-0.8,11.6-10.6,15.3-16.7
			c-5.6,3.6-10.3,9.8-15.4,13.8c-2.8,2.1-6.1,2.8-9.4,3.7c7.2,0.5,13.3,4,20.9,3.5c8.2-0.4,15.5-5.1,19.4-12.3
			C126.1,118.4,117.1,118,108.8,118.8"/>
		<path class="st0" d="M102,126.2c-8.3-3.8-17.8-8-27.5-4.4c-5.3-1.6-10.9-1.6-16.1,0c-8.5,3.9-20.1,9.7-29.1,3.2
			c1.7,2,3.5,3,5.5,4.4c5.8,3.8,14.2,3.4,20.1,0.3c5.5-2.3,9.7-9.2,16.7-7.1c-6.1,2.9-11.6,6.9-16.3,11.7l3,2.6
			c4.3-5.7,10-10.3,16.5-13.3c6.1,2.9,11.6,8,16.2,13.1l3-2.6c-4.8-4.6-10.3-8.4-16.2-11.5c1.6-0.3,3.3-0.4,4.9-0.1
			c6.3,2.8,11.1,8.3,18.2,9.1c7.5,1.2,14.3-1.8,18.9-7.3l-3.6,1.9C112,128.1,106.3,127.6,102,126.2"/>
		<path class="st0" d="M133.9,102.7c-6,2.8-12.1,6-17.2,10.4h-0.6l0.3-0.5c8.7-5.8,6.4-17,10.1-25.3l-4.1,5.3
			c-5.5,7.5-4.8,17.8-12.4,24.3c3.9-1.3,8.2-1.8,12.3-2.7c9.1-2.3,18.7-11.3,20.1-20.7C140.8,97.5,137.4,100.4,133.9,102.7"/>
		<path class="st0" d="M129.7,36.6c-1.1-2.3-1.4-5-2.5-7.3c-2.3-6.5-9.5-9.6-15.5-11.6l3.7,3.7C119.2,27.3,124.1,32.4,129.7,36.6"/>
		<path class="st0" d="M22.7,43.1c-3.1,5.7-10.8,9.1-12.2,15.9c-0.1,1.1-0.3,2.2-0.6,3.2L9.7,62l0.4-4.4c1.3-7.9-3.3-16,0.8-22.7
			c-2.8,3.4-4.7,7.3-5.7,11.6c-1.9,8.9,3.5,15.8,4.6,23.9C11.4,60.1,22.1,53.7,22.7,43.1"/>
		<path class="st0" d="M145.4,79.4c-4.3,6.6-11.5,12-15.1,18.9c-0.1,0.2-0.4,0.4-0.6,0.1l0.7-0.9c5.1-7.4,0.5-16.5,0.8-24.7
			c-4.6,9.9-1.3,23-6.9,32.5l0.9-0.8c10.9-5.9,24-15.9,21.8-30.5C146.9,75.8,146.3,77.7,145.4,79.4"/>
		<path class="st0" d="M22.8,71.5c1.8,20,17.6,38.5,37,43.6c20.8,6,43.1-1.6,56-18.9c11.8-14.6,13.9-39.2,4.1-55.4
			C115.3,32,106.5,23.3,97.8,19c-14.4-8.1-35.7-7.1-49.5,1.4C30.3,30.9,20.4,50.3,22.8,71.5 M25.2,66.8c2.6,0.2,5.2,0.2,7.8-0.1
			c-0.1,3.4,0.5,6.8,1.6,10c-0.7-0.8-1.4-2.4-2.7-1.3c-0.5,0.2,0.1,1.3-0.8,0.9c-0.4-0.5-1.2-0.6-1.7-0.2c-0.9,1.2-1.2,2.7-0.9,4.2
			c1,0.8,0.3,3.3,2.1,2.8c0.5,0.5,1.1,1.6,2,1.6L33,84c0.5,1.3,1.7,1.2,2.4,2.3c1.2-0.6,0.6,1,1.3,1.3c0.7,0.4,1.1,1.8,2.2,1.3
			c0.1-0.1,0.3-0.2,0.2-0.3c0.3,1.2,1.2,2.1,2.3,2.4c1,0.8,1.6,1.9,2.6,2.6c-2,1.7-3.9,3.6-5.7,5.6C30.3,90.2,25.7,78.8,25.2,66.8
			 M72.5,34c-7.3,0.1-14.2,3-19.4,8.1c-1.6-1.9-3.4-3.7-5.4-5.2c6.9-6.1,15.6-9.8,24.8-10.3C72.4,29.1,72.4,31.6,72.5,34 M61.7,73.3
			c0.3-0.4-0.3-0.7-0.1-1.3c0.6,0.3,0.3,1.4,0.7,2c0.2,0.2,0,0.5,0.1,0.8l-2.2,2.3c-1.2-2.2-2.7-4.2-3.2-6.6l-0.4-0.7
			c0.5,0.7,2-0.1,2.1,1.2c0.6,0.5,1.4-0.3,1.3,0.8C60.2,72.6,60.9,73.1,61.7,73.3 M67,74c0.2,1.1,1.5,1.3,2.2,1.8
			c1.3,0.4,2.7,1.5,4.2,0.7c-0.6,0.2,0,1-0.2,1.4c-0.2,0.6-0.3,1.2-0.1,1.7c0.2,0.4,0.5,0.4,0.6,0.8c-0.4,0.5-1.2,0-1.6,0.3
			c-0.4,0.8-0.6,1.7-0.4,2.6c-3.4-0.6-6.5-2-9.2-4.2L67,74z M63.5,73.6c0.5-0.5,0.8-1.1,1.1-1.7l0.8,0.5
			C64.6,72.3,64.2,73.3,63.5,73.6 M72.8,104.2l-0.6-0.3c-9.5-0.4-17.8-4.5-24.8-10.6c0.8-0.1,2,1.6,3.5,0.8c1.6-1.2,3.6-0.5,5.2-1.5
			c0.4-1-0.7-1.1-0.7-1.9c5,3.7,10.8,6.4,17.3,6C72.5,99.2,72.5,101.7,72.8,104.2 M46.2,72c0.4-1.9-0.2-3.7-0.7-5.4
			c0.7,0.4,1.5,0.5,2.3,0.2c-1.1,0.1-0.7,1.9-1.3,2.8C48,70.4,46.5,71.2,46.2,72 M49.9,66.8c0.5-0.4,1.5,0.3,1.6-0.6
			c0.1-1.1-1.7-2.8,0.1-3.4c0.8,0,1.8-0.1,2,0.8c0.4,1.2-0.2,2.9,0.1,4.1l-1.2,0.6c-0.4-0.3-0.7-1-1.3-0.9c-0.7,0.5,0.2,0.9,0.1,1.4
			c-0.1,0.4-0.1,0.8-0.1,1.3c-0.4,0-0.8-0.3-1.1,0.2c0,0.8,0.9,1,1.3,1.4c0.8-0.3,0.8-1.6,0.9-2.6l0.8,0.5c0.7,3.6,2.3,6.9,4.7,9.7
			L51.3,86c0-0.5-0.8-0.2-0.3-0.8c0.4-0.2,1.1-0.4,1-1.1c0.1-1.2-0.4-2.3-1.2-3.1c-0.2-1.7,0-3.7-0.9-5c0.2-1.8-0.8-3.4-2.1-4.7
			c0.5-1-0.6-1.4-0.2-2.5C48.9,68.6,50.2,68.3,49.9,66.8 M66.4,90.1c0.8,1.4,1.5,3.1,3.4,3.4c-5.4-1-10.5-3.4-14.6-7.1h-0.3
			c1.9-1.6,3.6-3.3,5.2-5.2c2.2,2.6,5.3,4,8.4,5c0.6-0.1,1.2-0.2,1.7-0.3C69,86,68,86.6,67.4,87.6C67.6,88.8,65.9,89,66.4,90.1
			 M56,53.4c-1.4,0.7-1.8,2.3-3.5,2.5c-0.9,0.4,0.3,1.3-0.8,1.5c-2.3-0.1-2.6,2.6-3.3,4.2c-0.1,0.8,0,1.6,0.4,2.3L45.6,64
			c0.7-4,1.3-8,3.1-11.5c1.2-2.4,2.7-4.6,4.4-6.6c2,1.8,3.5,3.8,5.7,5.3C57.6,51.4,57.3,53.3,56,53.4 M51.2,44
			c-5,5.4-7.9,12.4-8.3,19.7l0.2,0.3c-2.4-0.2-5.1,0-7.6-0.1c0.5-9.2,4.1-18,10.2-24.9v-0.5C47.4,40.5,49.2,42.4,51.2,44 M43.2,66.7
			c-0.4,1-0.3,2.1,0.1,3.1c-0.2-0.2-0.5-0.4-0.7-0.6c-1.6-0.1-1.7,1.9-3.2,2c-1.1,1.4-1.3,3.3-1.5,5c-0.6,0-0.3,0.8-0.7,1.1
			c-0.3-3.3-1.3-6.7-1.5-10.2l-0.2-0.3C38,67.1,40.6,67.1,43.2,66.7 M40.4,101l5.4-5.6c7.2,7.1,16.8,11.1,26.9,11.3l0.1-0.1
			c-0.4,2.3-0.1,4.9-0.2,7.3l0.3,0.6C60.8,113.9,49.4,109.1,40.4,101 M72.4,84.3c0.1-0.5,1-0.2,1.3-0.9c1.1,0.1,1.2-1.3,1.7-1.7
			c0.8,0.1,1.6-1.3,2.1-0.1c1.1-0.5,1.9,2.2,2.2,0.1c0.6,0.2,1.2,1.2,1.8,0.5c0.5-0.3,0.1-0.9-0.1-1.2c0.6,0.3,1.4,1.2,2,0.3
			c0.3-0.6,0.7-0.6,1.3-0.9c0.6,0.2,0.3,1.2,0.1,1.6c-1,1.2-2.3,2.1-3.9,2.3c-0.3,0.5-0.3,1.3-1,1.3c-0.6-1.1-2.7,0.2-2.6-1.5
			c-1.1,0.1-2.2-0.4-3.1,0.4C73.7,84.7,73,85,72.4,84.3 M81,51.4c-0.3-0.2-0.3-1-0.9-0.7c-0.7,0.9-1.7,1.1-2.3,2.1l-2-0.7l-0.2-5.2
			c3.7,0.6,7.2,1.9,10.3,3.8c-0.4,0.4-1.4,0.9-1.5,1.5c0.4,0.1,0.7,0.7,1.2,0.2c-0.6,2-3.4,1.7-3.7,3.7c-1.5,1.6-2.4-1.9-3.9-0.3
			h-0.6C78.8,54.9,81.4,53.8,81,51.4 M101.3,55.2c0.3,1.6,1.7,3.4-0.1,4.7c-0.3,0.4-0.7,0.6-1.2,0.5c-0.4-0.9,0.7-1.2,0.5-2.1
			c0.3-0.2,1-0.7,0.6-1.2c-0.8-0.1-1.1-1.4-2-1.5c-0.8-0.1-1.6,0.2-2.1,0.8c-0.1-0.2-0.3-0.4-0.5-0.6c0.2-0.3,0.7-0.7,0.3-1.2
			c-0.9-0.5-1-1.6-2-2.2c-1.7-0.2-3.1,0-4.7-0.6c-1.6-0.4-1.2,1.4-1.7,2.2c0,0.1-0.4-0.2-0.6-0.6c2.2-2.5,5.1-5.3,7.3-7.9
			c1.2,1.8,3.3,3.2,3.4,5.4c-0.4,0.3-0.7,0.8-0.7,1.3C99,53.5,100.6,53.7,101.3,55.2 M105.5,69.4c0-1,0.5-1.9,0.2-2.9
			c2.5,0.3,5.1,0.3,7.6,0.1c-0.9,1.9-0.6,4.6-1.2,6.9c-1.5,6.7-4.8,13-9.5,18c-0.1-1.2-0.3-3.8-2.2-4.4c-0.3-0.1-0.4,0.2-0.6,0.3
			v0.7c-1-0.2-1.6-1.5-2.5-2h0.3c3.3-3.7,5.7-8.1,7-12.9c0.4,0.2,1,0.2,1.4-0.1C106.8,71.5,104.5,71.1,105.5,69.4 M96.2,96.3
			C95,95,96.9,94,97.5,92.9c-0.1-2.2-5.5-2.3-1.8-4.9l0,0c0.9,1.7,3.5,2.7,3.5,4.9c0.3,0.6,1.1,0.8,1.6,0.5c0,0,0.1,0,0.1-0.1
			l-5,4.2C96,97.1,96.6,96.7,96.2,96.3 M91.8,84.5c2,0.2,1.7-2.1,2.4-3.2c-0.1-0.6,0-1.2,0.5-1.6c0.1-0.9-0.1-1.9-0.6-2.7
			c-0.8-0.4-1.8,0-2.2,0.8v0.1c-0.2,0.2-0.1,0.6-0.5,0.8c-0.5-0.3-1.5,0.7-1.7-0.1c2.2,0.7,1.6-2.5,3.9-1.8c0.6-0.9,1.5-1.7,1.6-2.8
			c0,0.4,0.1,1,0.6,1.1c1.2,0.1,0.9-1.9,2.3-0.8c1.3,0.2,2.2-0.5,3.5-0.4c-0.9,4-3.1,7.1-5.7,10.3c-0.4-0.6-0.2-1.7-1.1-1.8
			c-0.6,0.7-1,1.6-1.2,2.6c-1,0.8-2.7,0.4-4.1,0.6c-1.3-1.2-3-1.2-4.5-1.7v-0.5C87.4,83.2,89.7,83.6,91.8,84.5 M85.2,73.6
			c0.4,0,0.4,1.1,1.3,1.1c0.5,0.4,0.4,1,0.6,1.5c-0.1,0.2-0.4,0.1-0.7,0.1C86.2,75,84.1,75.1,85.2,73.6 M102.1,71.7
			c-0.1-1.7-2.5-2.3-2.4-4l-1.3-1.5c1.3,0.8,3.1,0.3,4.6,0.5C102.5,68.3,102.6,70.1,102.1,71.7 M88.1,49.1c-3.5-3-7.9-4.8-12.5-5.1
			c0.2-2.4,0.2-4.9-0.1-7.3c6.6,0.5,13,3.1,18.1,7.3C91.7,45,89.8,47.4,88.1,49.1 M84,77.8c-0.2,0.9-1.5,0.7-2.1,1.5
			C81.8,78.3,83,77.6,84,77.8 M78.9,98.2c0,0.8-0.9,1.8-0.2,2.8c0.4,1.5,1.8,1.4,2.8,2.3c-1.6,0.3-4.1,0.2-5.9,0.9l0.1-6.1l-0.5-0.8
			C76,98.3,77.8,97.6,78.9,98.2 M75.9,114.4l-0.3,0.2v-8.1c2.7,0.4,5.4-0.3,8-0.7c1.7,0.4,2.9,2.9,4.8,2.1c4.9-1.8,5.4-7.4,10.4-9.2
			c1.6-1,3-2.2,4.1-3.7c1.7,2,3.6,3.9,5.6,5.7C99.6,109,88,113.9,75.9,114.4 M122.7,73.7c-1.5,9.4-5.9,17.7-12.4,25.1
			c-1.7-1.8-3.8-3.9-5.6-5.6c6.8-7.2,10.7-16.6,11.2-26.4l-0.2-0.5l0.3,0.4c2.6-0.1,5.4,0.3,7.8-0.4
			C123.1,68.7,123.3,71.3,122.7,73.7 M123.5,63.4l0.2,0.2c-2.6-0.1-5.2,0.1-7.8,0.3c-0.3-5.6-1.5-11.4-4-16.2c0-2-1.7-3.1-2.4-4.7
			c-1.8-1.6-2.8-3.7-4.9-5.2c-0.4-0.3-0.2-1.1-0.9-1.1l0.8-0.1l5.1-5.5C117.9,40.1,123,50.8,123.5,63.4 M75.4,15.8
			c2.5,0.7,5.3,0.5,7.8,1.1c9.2,1.7,17.8,6,24.6,12.5c-2,1.1-3.7,2.7-4.8,4.7v0.1c-0.4-0.9-1.4-1.4-1.4-2.6
			c-0.9-0.8-1.5-2.1-2.8-2.3c-0.5-1.6-2.1-0.6-3-1.6c-3.3,2.1-6.2-1.9-9.5-2.3c-3.1-1-6.4-1.8-9.9-1.6c0.2-0.6,0.2-1.4-0.5-1.6
			c-0.2,0.1-0.5,0.1-0.6,0.5C75.6,20.4,75.6,18.1,75.4,15.8 M80.9,27.2c3.5,0.7,6.9,1.7,10.1,3.2c2,1,1.3,3.1,2.8,4.3
			c0.5,0.9-0.5,1.8,0.5,2.6c0,0.7,0.3,1.7,1.3,1.2c0.4-0.4,1-0.8,1.6-0.5c1.1,0.9,1.2,2.3,1.3,3.5c0.2,0.9,0.9,1.6,1.7,1.9
			c1.6-0.3,1,2.1,2.7,2.1c0.8,0.5,1.5,1.3,2.4,1.3c1.2,0.9,1.8,2.3,2.7,3.4c0.6,0.3,1.2,0,1.7-0.2c2,4.4,3.2,9.1,3.6,13.9l-7.4,0.1
			c-0.2-1.3,0-2.9-0.7-4c0.1-0.8,0.2-1.8,0.3-2.8c-0.3-0.7-0.7,0-1.1,0.1c-0.7,2.1-2.8,4.3-1.2,6.6l-2.9-0.1c0.4-0.5-0.2-1.3,0.1-2
			c1.6,0.4,1.8-1.5,2.7-2.3c0.2-1.3,1.6-2.6,0.4-3.9c0.9-1.3,0.4-3-0.1-4.2c-0.3-0.5-1.5,0.1-1.3-0.9c0.3-0.3,0.7-0.6,0.6-1.2
			c-0.3-0.5-0.7,0.1-1.2-0.1c-0.1-0.6,1-1,0.3-1.5c-0.8-1.1-2.2,1.2-2.5-0.6c0.1-1-0.8-1.7-1.6-2.3c-0.9,0.1-0.1-1.1-0.7-1.4
			c-2.5-1.2-0.6-5.2-3.9-5.1c-0.6-0.9-1.5-2.5-2.7-2.6c-0.4,0.9,0.9,1.3,0.8,2.1H91c0,0.7,0.3,1.4,0.9,1.8
			C87.3,36,81.5,34.1,75.4,34c0.2-2.6,0.2-5.1-0.1-7.7C77.2,26.7,79,27,80.9,27.2 M74,56.3c0,0.2,0.1,0.3,0.2,0.4
			c-0.3-0.1-1.4-0.2-1.5,0.4c0,1,1.3,1.3,1.7,2c2-0.8,2.4,1.8,4.1,2.1c-0.9,0.8,1.3,1.7-0.1,2.2c0,0.5-0.5,0.7-0.3,1.3
			c1,0.1,0.9,1.2,1.4,1.7c0,0.7-0.2,1.5,0.6,1.9c-0.1,0.8-0.3,1.6-0.6,2.4c-0.8,0.1-1.6,0.2-2.5,0.1c-1.4,0.8-0.5,3.2-2.4,3.1
			c-1.9,0.1-3.7-0.5-5.2-1.6c1.2-0.3,2.2,0.1,3.1-0.8c0-0.5,0.6-0.9,0.3-1.4c0.5-0.7,1.3-1.7,0.8-2.6c0.1-0.5-0.5-0.6-0.8-0.9
			c-1.1,0.1-2.4-0.4-3.4,0.5c0.1,0.7,0,1.6-0.8,1.8c-0.9,0.1-0.7,1.4-1.4,1.4l-0.6-1.1h0.2c-0.1,0.1,0,0.3,0.1,0.4
			c0.1,0,0.1,0,0.2,0c1.1,0,0.6-1.3,1-1.7l0.8-1.2c-0.4-0.2-0.7-0.6-0.6-1.1c-0.4-0.2-0.9-0.1-1.1,0.3c0,0.1-0.1,0.1-0.1,0.2
			c0.1,0.4,0,0.9-0.3,1.3h-0.2c0.1-0.3-0.2-0.4-0.3-0.6c-1.5,0-2.9,0.9-4.4,0.6c1.4-0.3,0.9-3.9,3.1-2.2l0.3-0.4
			c0.7,0.6,0.1,2.3,1.6,2c0.7-1.7-0.1-4.5,2.1-5.2c0.3-1.5,2.4-1.3,3.2-2.5c0.7-0.5,0.1-1.6,0-2.3l-0.1-0.1
			C72.8,56.3,73.4,56.2,74,56.3 M70.6,51.5c-0.7,0-0.9,0.9-1.2,1.4c0.3,0.7-0.5,1.2-0.7,1.7c-0.5,0-1.2,0.6-1.6-0.1
			c-0.8,0.4-1.4,0-1.9-0.6c-0.6,0.1-0.7,1.3-1.3,0.3c0-0.3,0.7-0.3,0.5-0.8c-0.8-0.7-1.7-1.1-2.7-1.3c2.9-3.1,6.7-4.6,10.8-5.2
			c0.3,1.6-0.2,3.9,0.4,5.6C72.3,51.5,70.1,53.8,70.6,51.5 M72.5,44.1c-4.5,0.2-8.8,2-12,5.1c-1.9-1.7-3.5-3.8-5.5-5.1
			c5.2-4,10.7-7,17.4-7.3l0.2-0.2C72.4,39.1,72.3,41.6,72.5,44.1 M72.4,16.1c-0.2,2.5-0.2,5.1,0.1,7.6C62.6,24,53.2,28,46.1,34.9
			l-5.7-5.5C49.2,21.4,60.5,16.7,72.4,16.1 M38.7,31.2l0.2,0.7l5.2,5.1c-5.6,5.4-8.7,12.3-10.4,19.6c-0.3,2.5-1,4.9-0.7,7.4
			l-7.9-0.1C25.7,51.8,30.4,40.2,38.7,31.2"/>
		<path class="st0" d="M100.1,28.7l-0.3-1.5c-0.4-1-1.7-0.5-2.3-0.8c-0.4,0.1-0.2,0.7-0.1,1C98.6,27.4,98.6,29.5,100.1,28.7"/>
		<path class="st0" d="M78.7,23.1c2.2-1,4.8,0.6,6.6-1.4c-0.5-1.5-2.5-1.5-3.9-1.7l-3.5,1.5c-0.4,0.2-1.6-0.4-1.4,0.6
			C77.1,22.6,77.9,22.9,78.7,23.1"/>
		<path class="st0" d="M11.8,52.6c1.4-2.8,4.1-5.5,6.5-7.4c5.5-3.5,10.3-9.1,10.5-15.4c-2.9,7.4-12.5,8.4-14.8,16.3h-0.2
			c3.5-6.6,1.5-15.8,8.3-20.7c-3.5,1.1-6.5,3.5-8.4,6.7C9.7,37.8,12.9,45.8,11.8,52.6"/>
		<path class="st0" d="M22.2,34.1C28.4,29.8,30,22.8,36,18.4c-4.6,1.8-9.6,3.3-13,7.6c-2.7,3.5-3.5,7.6-4.8,11.6L22.2,34.1z"/>
		<path class="st0" d="M132.4,39.1c0.5,2.1,1.8,4.1,1.9,6.2c-2.8-8-12-8.8-15.4-16.4l1.1,4.4c2.6,8.6,12.8,10.6,16.7,18.4
			c-1.2-5.6,0.9-11.4-0.8-17c-1.5-4.9-5.2-8.7-10.1-10.3C130.9,27.8,130.6,34,132.4,39.1"/>
		<path class="st0" d="M13.6,89.1c-0.5-2.5-0.5-5-0.1-7.4c2-8.1,5.2-15.9,4.7-24.8c-1.2,6.4-7,11-7.6,17.6c-0.4,2.7,0.2,5.4,0.6,7.8
			c-0.7-1.3-1.2-2.7-1.3-4.2c-1-8.7-8-15.1-6.5-24.5C0.9,59.4,1.1,67.1,3,73.1C4.6,79.4,10.5,83.7,13.6,89.1"/>
		<path class="st0" d="M167.1,135c-2.3,0-4.2-1.9-4.2-4.2s1.9-4.2,4.2-4.2s4.2,1.9,4.2,4.2l0,0C171.2,133.1,169.4,135,167.1,135"/>
		<path class="st0" d="M193.8,135c-2.3,0-4.2-1.9-4.2-4.2s1.9-4.2,4.2-4.2s4.2,1.9,4.2,4.2l0,0C198,133.1,196.1,135,193.8,135"/>
		<path class="st0" d="M220.6,135c-2.3,0-4.2-1.9-4.2-4.2s1.9-4.2,4.2-4.2s4.2,1.9,4.2,4.2C224.7,133.1,222.9,135,220.6,135"/>
		<path class="st0" d="M247.3,135c-2.3,0-4.2-1.9-4.2-4.2s1.9-4.2,4.2-4.2s4.2,1.9,4.2,4.2S249.6,135,247.3,135"/>
		<path class="st0" d="M274.1,135c-2.3,0-4.2-1.9-4.2-4.2s1.9-4.2,4.2-4.2c2.3,0,4.2,1.9,4.2,4.2C278.2,133.1,276.4,135,274.1,135"
			/>
		<path class="st0" d="M300.8,135c-2.3,0-4.2-1.9-4.2-4.2s1.9-4.2,4.2-4.2c2.3,0,4.2,1.9,4.2,4.2S303.1,135,300.8,135"/>
		<path class="st0" d="M327.6,135c-2.3,0-4.2-1.9-4.2-4.2s1.9-4.2,4.2-4.2c2.3,0,4.2,1.9,4.2,4.2C331.7,133.1,329.9,135,327.6,135"
			/>
		<path class="st0" d="M180.4,135c-2.3,0-4.2-1.9-4.2-4.2s1.9-4.2,4.2-4.2s4.2,1.9,4.2,4.2l0,0C184.6,133.1,182.8,135,180.4,135"/>
		<path class="st0" d="M207.2,135c-2.3,0-4.2-1.9-4.2-4.2s1.9-4.2,4.2-4.2s4.2,1.9,4.2,4.2l0,0C211.4,133.1,209.5,135,207.2,135"/>
		<path class="st0" d="M233.9,135c-2.3,0-4.2-1.9-4.2-4.2s1.9-4.2,4.2-4.2s4.2,1.9,4.2,4.2C238.1,133.1,236.2,135,233.9,135"/>
		<path class="st0" d="M260.7,135c-2.3,0-4.2-1.9-4.2-4.2s1.9-4.2,4.2-4.2c2.3,0,4.2,1.9,4.2,4.2C264.9,133.1,263,135,260.7,135
			L260.7,135"/>
		<path class="st0" d="M287.4,135c-2.3,0-4.2-1.9-4.2-4.2s1.9-4.2,4.2-4.2c2.3,0,4.2,1.9,4.2,4.2S289.7,135,287.4,135"/>
		<path class="st0" d="M314.2,135c-2.3,0-4.2-1.9-4.2-4.2s1.9-4.2,4.2-4.2c2.3,0,4.2,1.9,4.2,4.2C318.4,133.1,316.5,135,314.2,135"
			/>
		<path class="st0" d="M340.9,135c-2.3,0-4.2-1.9-4.2-4.2s1.9-4.2,4.2-4.2c2.3,0,4.2,1.9,4.2,4.2l0,0
			C345.1,133.1,343.2,135,340.9,135"/>
		<path class="st0" d="M367.7,135c-2.3,0-4.2-1.9-4.2-4.2s1.9-4.2,4.2-4.2c2.3,0,4.2,1.9,4.2,4.2C371.8,133.1,370,135,367.7,135"/>
		<path class="st0" d="M354.3,135c-2.3,0-4.2-1.9-4.2-4.2s1.9-4.2,4.2-4.2c2.3,0,4.2,1.9,4.2,4.2S356.6,135,354.3,135"/>
		<path class="st0" d="M381.1,135c-2.3,0-4.2-1.9-4.2-4.2s1.9-4.2,4.2-4.2c2.3,0,4.2,1.9,4.2,4.2C385.2,133.1,383.4,135,381.1,135
			L381.1,135"/>
	</g>
</g>
<line class="st1" x1="440" y1="17" x2="440" y2="140"/>
<g>
	<path class="st0" d="M547.2,78c0-3.5-2.8-6.3-6.3-6.3s-6.3,2.8-6.3,6.3s2.8,6.3,6.3,6.3S547.2,81.5,547.2,78z"/>
	<path class="st0" d="M558.9,70.9c0-3.1-2.5-5.6-5.6-5.6s-5.6,2.5-5.6,5.6s2.5,5.6,5.6,5.6S558.9,74,558.9,70.9z"/>
	<path class="st0" d="M559.5,85.5c0-3.1-2.5-5.6-5.6-5.6c-3.1,0-5.6,2.5-5.6,5.6s2.5,5.6,5.6,5.6C557,91.1,559.5,88.6,559.5,85.5z"
		/>
	<path class="st0" d="M535.3,63.7c0,3.1,2.5,5.6,5.6,5.6s5.6-2.5,5.6-5.6c0-3.1-2.5-5.6-5.6-5.6S535.3,60.6,535.3,63.7z"/>
	<path class="st0" d="M534.1,85.2c0-3.1-2.5-5.6-5.6-5.6s-5.6,2.5-5.6,5.6c0,3.1,2.5,5.6,5.6,5.6S534.1,88.3,534.1,85.2z"/>
	<path class="st0" d="M534.1,70.9c0-3.1-2.5-5.6-5.6-5.6s-5.6,2.5-5.6,5.6s2.5,5.6,5.6,5.6S534.1,74,534.1,70.9z"/>
	<path class="st0" d="M535.3,92.3c0,3.1,2.5,5.6,5.6,5.6s5.6-2.5,5.6-5.6s-2.5-5.6-5.6-5.6S535.3,89.2,535.3,92.3z"/>
	<path class="st0" d="M558,56.6c0-2.6-2.1-4.8-4.8-4.8s-4.8,2.1-4.8,4.8c0,2.6,2.1,4.8,4.8,4.8S558,59.2,558,56.6z"/>
	<path class="st0" d="M570.4,63.7c0-2.6-2.1-4.8-4.8-4.8s-4.8,2.1-4.8,4.8c0,2.6,2.1,4.8,4.8,4.8S570.4,66.3,570.4,63.7z"/>
	<path class="st0" d="M570.4,78c0-2.6-2.1-4.8-4.8-4.8s-4.8,2.1-4.8,4.8s2.1,4.8,4.8,4.8S570.4,80.6,570.4,78z"/>
	<circle class="st0" cx="565.7" cy="92.3" r="4.8"/>
	<path class="st0" d="M558,99.5c0-2.6-2.1-4.8-4.8-4.8s-4.8,2.1-4.8,4.8c0,2.6,2.1,4.8,4.8,4.8S558,102.1,558,99.5z"/>
	<path class="st0" d="M545.7,106.6c0-2.6-2.1-4.8-4.8-4.8s-4.8,2.1-4.8,4.8s2.1,4.8,4.8,4.8S545.7,109.2,545.7,106.6z"/>
	<path class="st0" d="M533.3,99.5c0-2.6-2.1-4.8-4.8-4.8s-4.8,2.1-4.8,4.8c0,2.6,2.1,4.8,4.8,4.8S533.3,102.1,533.3,99.5z"/>
	<circle class="st0" cx="516.1" cy="92.3" r="4.8"/>
	<path class="st0" d="M520.9,78c0-2.6-2.1-4.8-4.8-4.8s-4.8,2.1-4.8,4.8s2.1,4.8,4.8,4.8S520.9,80.6,520.9,78z"/>
	<circle class="st0" cx="516.1" cy="63.7" r="4.8"/>
	<path class="st0" d="M533.3,56.6c0-2.6-2.1-4.8-4.8-4.8s-4.8,2.1-4.8,4.8c0,2.6,2.1,4.8,4.8,4.8S533.3,59.2,533.3,56.6z"/>
	<path class="st0" d="M545.7,49.4c0-2.6-2.1-4.8-4.8-4.8s-4.8,2.1-4.8,4.8c0,2.6,2.1,4.8,4.8,4.8S545.7,52,545.7,49.4z"/>
	<path class="st0" d="M544.8,35.1c0-2.1-1.7-3.9-3.9-3.9S537,33,537,35.1c0,2.1,1.7,3.9,3.9,3.9S544.8,37.3,544.8,35.1z"/>
	<circle class="st0" cx="540.9" cy="20.8" r="3"/>
	<circle class="st0" cx="553.3" cy="13.7" r="2.2"/>
	<path class="st0" d="M567.8,20.8c0-1.2-1-2.2-2.2-2.2s-2.2,1-2.2,2.2c0,1.2,1,2.2,2.2,2.2S567.8,22,567.8,20.8z"/>
	<path class="st0" d="M580.2,28c0-1.2-1-2.2-2.2-2.2s-2.2,1-2.2,2.2c0,1.2,1,2.2,2.2,2.2S580.2,29.2,580.2,28z"/>
	<path class="st0" d="M592.5,35.1c0-1.2-1-2.2-2.2-2.2s-2.2,1-2.2,2.2s1,2.2,2.2,2.2S592.5,36.3,592.5,35.1z"/>
	<path class="st0" d="M604.9,56.5c0-1.2-1-2.2-2.2-2.2c-1.2,0-2.2,1-2.2,2.2s1,2.2,2.2,2.2C603.9,58.7,604.9,57.7,604.9,56.5z"/>
	<path class="st0" d="M604.9,70.8c0-1.2-1-2.2-2.2-2.2c-1.2,0-2.2,1-2.2,2.2c0,1.2,1,2.2,2.2,2.2C603.9,73,604.9,72,604.9,70.8z"/>
	<path class="st0" d="M604.9,85.1c0-1.2-1-2.2-2.2-2.2c-1.2,0-2.2,1-2.2,2.2c0,1.2,1,2.2,2.2,2.2C603.9,87.2,604.9,86.3,604.9,85.1z
		"/>
	<path class="st0" d="M604.9,99.3c0-1.2-1-2.2-2.2-2.2c-1.2,0-2.2,1-2.2,2.2c0,1.2,1,2.2,2.2,2.2
		C603.9,101.5,604.9,100.5,604.9,99.3z"/>
	<path class="st0" d="M592.5,120.9c0-1.2-1-2.2-2.2-2.2s-2.2,1-2.2,2.2c0,1.2,1,2.2,2.2,2.2S592.5,122.1,592.5,120.9z"/>
	<circle class="st0" cx="578" cy="128.2" r="2.2"/>
	<path class="st0" d="M567.8,135.5c0-1.2-1-2.2-2.2-2.2s-2.2,1-2.2,2.2c0,1.2,1,2.2,2.2,2.2S567.8,136.7,567.8,135.5z"/>
	<circle class="st0" cx="553.3" cy="142.8" r="2.2"/>
	<path class="st0" d="M530.7,142.4c0-1.2-1-2.2-2.2-2.2c-1.2,0-2.2,1-2.2,2.2c0,1.2,1,2.2,2.2,2.2
		C529.7,144.5,530.7,143.6,530.7,142.4z"/>
	<circle class="st0" cx="516.1" cy="135.2" r="2.2"/>
	<path class="st0" d="M505.9,128.1c0-1.2-1-2.2-2.2-2.2c-1.2,0-2.2,1-2.2,2.2c0,1.2,1,2.2,2.2,2.2
		C504.9,130.2,505.9,129.3,505.9,128.1z"/>
	<circle class="st0" cx="491.4" cy="120.9" r="2.2"/>
	<path class="st0" d="M481.1,99.5c0-1.2-1-2.2-2.2-2.2c-1.2,0-2.2,1-2.2,2.2s1,2.2,2.2,2.2C480.2,101.6,481.1,100.7,481.1,99.5z"/>
	<path class="st0" d="M476.8,70.9c0,1.2,1,2.2,2.2,2.2c1.2,0,2.2-1,2.2-2.2c0-1.2-1-2.2-2.2-2.2C477.8,68.7,476.8,69.7,476.8,70.9z"
		/>
	<path class="st0" d="M476.8,85.2c0,1.2,1,2.2,2.2,2.2c1.2,0,2.2-1,2.2-2.2s-1-2.2-2.2-2.2C477.8,83,476.8,84,476.8,85.2z"/>
	<path class="st0" d="M481.1,56.6c0-1.2-1-2.2-2.2-2.2c-1.2,0-2.2,1-2.2,2.2c0,1.2,1,2.2,2.2,2.2C480.2,58.7,481.1,57.8,481.1,56.6z
		"/>
	<path class="st0" d="M493.5,35.1c0-1.2-1-2.2-2.2-2.2c-1.2,0-2.2,1-2.2,2.2s1,2.2,2.2,2.2C492.6,37.3,493.5,36.3,493.5,35.1z"/>
	<path class="st0" d="M505.9,28c0-1.2-1-2.2-2.2-2.2c-1.2,0-2.2,1-2.2,2.2c0,1.2,1,2.2,2.2,2.2C504.9,30.1,505.9,29.2,505.9,28z"/>
	<path class="st0" d="M518.3,20.8c0-1.2-1-2.2-2.2-2.2s-2.2,1-2.2,2.2c0,1.2,1,2.2,2.2,2.2S518.3,22,518.3,20.8z"/>
	<path class="st0" d="M530.7,13.7c0-1.2-1-2.2-2.2-2.2c-1.2,0-2.2,1-2.2,2.2s1,2.2,2.2,2.2C529.7,15.8,530.7,14.9,530.7,13.7z"/>
	<circle class="st0" cx="553.3" cy="28" r="3"/>
	<path class="st0" d="M568.7,35.1c0-1.7-1.4-3-3-3s-3,1.4-3,3c0,1.7,1.4,3,3,3S568.7,36.8,568.7,35.1z"/>
	<circle class="st0" cx="578" cy="42.3" r="3"/>
	<path class="st0" d="M593.5,49.4c0-1.7-1.4-3-3-3c-1.7,0-3,1.4-3,3c0,1.7,1.4,3,3,3C592.1,52.4,593.5,51.1,593.5,49.4z"/>
	<path class="st0" d="M593.5,63.7c0-1.7-1.4-3-3-3c-1.7,0-3,1.4-3,3c0,1.7,1.4,3,3,3C592.1,66.7,593.5,65.4,593.5,63.7z"/>
	<path class="st0" d="M593.5,78c0-1.7-1.4-3-3-3c-1.7,0-3,1.4-3,3c0,1.7,1.4,3,3,3C592.1,81,593.5,79.7,593.5,78z"/>
	<path class="st0" d="M593.5,92.3c0-1.7-1.4-3-3-3c-1.7,0-3,1.4-3,3c0,1.7,1.4,3,3,3C592.1,95.3,593.5,94,593.5,92.3z"/>
	<path class="st0" d="M593.5,106.6c0-1.7-1.4-3-3-3c-1.7,0-3,1.4-3,3s1.4,3,3,3C592.1,109.6,593.5,108.3,593.5,106.6z"/>
	<path class="st0" d="M581.1,113.8c0-1.7-1.4-3-3-3c-1.7,0-3,1.4-3,3s1.4,3,3,3C579.7,116.8,581.1,115.4,581.1,113.8z"/>
	<path class="st0" d="M568.7,120.9c0-1.7-1.4-3-3-3s-3,1.4-3,3c0,1.7,1.4,3,3,3S568.7,122.6,568.7,120.9z"/>
	<path class="st0" d="M556.3,128.1c0-1.7-1.4-3-3-3s-3,1.4-3,3c0,1.7,1.4,3,3,3S556.3,129.7,556.3,128.1z"/>
	<path class="st0" d="M543.9,135.2c0-1.7-1.4-3-3-3s-3,1.4-3,3c0,1.7,1.4,3,3,3S543.9,136.9,543.9,135.2z"/>
	<circle class="st0" cx="528.5" cy="128.1" r="3"/>
	<circle class="st0" cx="516.1" cy="120.9" r="3"/>
	<circle class="st0" cx="503.7" cy="113.8" r="3"/>
	<circle class="st0" cx="491.4" cy="106.6" r="3"/>
	<circle class="st0" cx="491.4" cy="92.3" r="3"/>
	<circle class="st0" cx="491.4" cy="78" r="3"/>
	<circle class="st0" cx="491.4" cy="63.7" r="3"/>
	<circle class="st0" cx="491.4" cy="49.4" r="3"/>
	<path class="st0" d="M506.8,42.3c0-1.7-1.4-3-3-3c-1.7,0-3,1.4-3,3c0,1.7,1.4,3,3,3C505.4,45.3,506.8,43.9,506.8,42.3z"/>
	<path class="st0" d="M519.2,35.1c0-1.7-1.4-3-3-3c-1.7,0-3,1.4-3,3c0,1.7,1.4,3,3,3C517.8,38.1,519.2,36.8,519.2,35.1z"/>
	<circle class="st0" cx="528.5" cy="28" r="3"/>
	<circle class="st0" cx="553.3" cy="42.3" r="3.9"/>
	<circle class="st0" cx="565.7" cy="49.4" r="3.9"/>
	<path class="st0" d="M581.9,56.6c0-2.1-1.7-3.9-3.9-3.9c-2.1,0-3.9,1.7-3.9,3.9c0,2.1,1.7,3.9,3.9,3.9
		C580.2,60.5,581.9,58.7,581.9,56.6z"/>
	<path class="st0" d="M581.9,70.9c0-2.1-1.7-3.9-3.9-3.9c-2.1,0-3.9,1.7-3.9,3.9c0,2.1,1.7,3.9,3.9,3.9
		C580.2,74.8,581.9,73,581.9,70.9z"/>
	<path class="st0" d="M581.9,85.2c0-2.1-1.7-3.9-3.9-3.9c-2.1,0-3.9,1.7-3.9,3.9c0,2.1,1.7,3.9,3.9,3.9
		C580.2,89.1,581.9,87.3,581.9,85.2z"/>
	<path class="st0" d="M581.9,99.5c0-2.1-1.7-3.9-3.9-3.9c-2.1,0-3.9,1.7-3.9,3.9c0,2.1,1.7,3.9,3.9,3.9
		C580.2,103.4,581.9,101.6,581.9,99.5z"/>
	<circle class="st0" cx="565.7" cy="106.6" r="3.9"/>
	<circle class="st0" cx="553.3" cy="113.8" r="3.9"/>
	<circle class="st0" cx="540.9" cy="120.9" r="3.9"/>
	<path class="st0" d="M532.4,113.8c0-2.1-1.7-3.9-3.9-3.9s-3.9,1.7-3.9,3.9c0,2.1,1.7,3.9,3.9,3.9S532.4,115.9,532.4,113.8z"/>
	<circle class="st0" cx="516.1" cy="106.6" r="3.9"/>
	<circle class="st0" cx="503.7" cy="99.5" r="3.9"/>
	<circle class="st0" cx="503.7" cy="85.2" r="3.9"/>
	<path class="st0" d="M507.6,70.9c0-2.1-1.7-3.9-3.9-3.9c-2.1,0-3.9,1.7-3.9,3.9c0,2.1,1.7,3.9,3.9,3.9
		C505.9,74.8,507.6,73,507.6,70.9z"/>
	<circle class="st0" cx="503.7" cy="56.6" r="3.9"/>
	<path class="st0" d="M520,49.4c0-2.1-1.7-3.9-3.9-3.9s-3.9,1.7-3.9,3.9s1.7,3.9,3.9,3.9S520,51.6,520,49.4z"/>
	<path class="st0" d="M532.4,42.3c0-2.1-1.7-3.9-3.9-3.9s-3.9,1.7-3.9,3.9c0,2.1,1.7,3.9,3.9,3.9S532.4,44.4,532.4,42.3z"/>
</g>
<g>
	<path class="st0" d="M706.6,43.1"/>
	<path class="st0" d="M630.2,50.6h3.3v15.6h-3.3V50.6z"/>
	<path class="st0" d="M640.9,55.7v10.5h-3.3V50.6h3.4l7.2,10.1V50.6h3.3v15.6h-3.2L640.9,55.7z"/>
	<path class="st0" d="M655.6,50.6h11.1v2.9H659v3.4h7.6v2.9H659v6.5h-3.3V50.6z"/>
	<path class="st0" d="M677.4,50.3c4.7,0,8.2,3.4,8.2,8.1c0,4.7-3.4,8.1-8.2,8.1c-4.7,0-8.2-3.4-8.2-8.1
		C669.2,53.7,672.7,50.3,677.4,50.3z M677.4,53.3c-2.9,0-4.7,2.2-4.7,5.1c0,2.9,1.9,5.1,4.7,5.1c2.9,0,4.8-2.2,4.8-5.1
		C682.1,55.5,680.3,53.3,677.4,53.3z"/>
	<path class="st0" d="M694.1,60.6h-2.4v5.6h-3.3V50.6h7.3c3.3,0,5.3,2.1,5.3,5c0,2.8-1.7,4.2-3.4,4.6l3.5,6h-3.8L694.1,60.6z
		 M695.2,53.4h-3.5v4.3h3.5c1.3,0,2.3-0.8,2.3-2.2C697.5,54.3,696.5,53.4,695.2,53.4z"/>
	<path class="st0" d="M718.5,54.9l-4.4,11.3h-1.5l-4.4-11.3v11.3h-3.3V50.6h4.7l3.8,9.8l3.8-9.8h4.7v15.6h-3.4V54.9z"/>
	<path class="st0" d="M735.8,63.5h-7l-1,2.7h-3.7l6.1-15.6h4.2l6,15.6h-3.6L735.8,63.5z M729.7,60.6h5.2l-2.6-7.2L729.7,60.6z"/>
	<path class="st0" d="M744.9,53.5h-4.6v-2.9h12.5v2.9h-4.6v12.7h-3.4V53.5z"/>
	<path class="st0" d="M755.9,50.6h3.3v15.6h-3.3V50.6z"/>
	<path class="st0" d="M770.7,50.3c4.7,0,8.2,3.4,8.2,8.1c0,4.7-3.4,8.1-8.2,8.1c-4.7,0-8.2-3.4-8.2-8.1
		C762.5,53.7,766,50.3,770.7,50.3z M770.7,53.3c-2.9,0-4.7,2.2-4.7,5.1c0,2.9,1.9,5.1,4.7,5.1c2.9,0,4.8-2.2,4.8-5.1
		C775.4,55.5,773.6,53.3,770.7,53.3z"/>
	<path class="st0" d="M785.5,55.7v10.5h-3.3V50.6h3.4l7.2,10.1V50.6h3.3v15.6h-3.2L785.5,55.7z"/>
	<path class="st0" d="M643.8,78.4l-4.4,11.3H638l-4.4-11.3v11.3h-3.3V74h4.7l3.8,9.8l3.8-9.8h4.7v15.6h-3.4V78.4z"/>
	<path class="st0" d="M661.2,87h-7l-1,2.7h-3.7l6.1-15.6h4.2l6,15.6h-3.6L661.2,87z M655.1,84.1h5.2l-2.6-7.2L655.1,84.1z"/>
	<path class="st0" d="M671.5,79.1v10.5h-3.3V74h3.4l7.2,10.1V74h3.3v15.6H679L671.5,79.1z"/>
	<path class="st0" d="M696.2,87h-7l-1,2.7h-3.7l6.1-15.6h4.2l6,15.6h-3.6L696.2,87z M690.1,84.1h5.2l-2.6-7.2L690.1,84.1z"/>
	<path class="st0" d="M710,73.7c3.2,0,5.3,1.6,6.5,3.4l-2.8,1.5c-0.7-1.1-2.1-2-3.7-2c-2.8,0-4.9,2.2-4.9,5.1c0,3,2.1,5.1,4.9,5.1
		c1.4,0,2.7-0.6,3.4-1.2v-1.9h-4.2V81h7.5v6c-1.6,1.8-3.8,3-6.7,3c-4.6,0-8.3-3.2-8.3-8.1C701.7,76.9,705.4,73.7,710,73.7z"/>
	<path class="st0" d="M720.2,74h11.1v2.9h-7.7v3.4h7.6v2.9h-7.6v3.6h7.7v2.9h-11.1V74z"/>
	<path class="st0" d="M748.5,78.4L744,89.7h-1.5l-4.4-11.3v11.3h-3.3V74h4.7l3.8,9.8l3.8-9.8h4.7v15.6h-3.4V78.4z"/>
	<path class="st0" d="M755.8,74h11.1v2.9h-7.7v3.4h7.6v2.9h-7.6v3.6h7.7v2.9h-11.1V74z"/>
	<path class="st0" d="M773.8,79.1v10.5h-3.3V74h3.4l7.2,10.1V74h3.3v15.6h-3.2L773.8,79.1z"/>
	<path class="st0" d="M792.1,76.9h-4.6V74H800v2.9h-4.6v12.7h-3.4V76.9z"/>
	<path class="st0" d="M631,108.4c1.1,1.1,2.8,2.1,5,2.1c1.8,0,2.7-0.9,2.7-1.8c0-1.2-1.4-1.6-3.2-2c-2.6-0.6-5.8-1.3-5.8-4.8
		c0-2.6,2.3-4.7,5.9-4.7c2.5,0,4.6,0.8,6.1,2.2l-1.9,2.4c-1.3-1.2-3-1.7-4.5-1.7c-1.5,0-2.3,0.7-2.3,1.6c0,1.1,1.3,1.4,3.1,1.8
		c2.6,0.6,5.9,1.4,5.9,4.8c0,2.9-2,5-6.3,5c-3,0-5.2-1-6.6-2.5L631,108.4z"/>
	<path class="st0" d="M649.4,106.7l-6-9.2h3.8l3.9,6.3l3.8-6.3h3.8l-6,9.2v6.4h-3.3V106.7z"/>
	<path class="st0" d="M661.4,108.4c1.1,1.1,2.8,2.1,5,2.1c1.8,0,2.7-0.9,2.7-1.8c0-1.2-1.4-1.6-3.2-2c-2.6-0.6-5.8-1.3-5.8-4.8
		c0-2.6,2.3-4.7,5.9-4.7c2.5,0,4.6,0.8,6.1,2.2l-1.9,2.4c-1.3-1.2-3-1.7-4.5-1.7c-1.5,0-2.3,0.7-2.3,1.6c0,1.1,1.3,1.4,3.1,1.8
		c2.6,0.6,5.9,1.4,5.9,4.8c0,2.9-2,5-6.3,5c-3,0-5.2-1-6.6-2.5L661.4,108.4z"/>
	<path class="st0" d="M679.1,100.4h-4.6v-2.9H687v2.9h-4.6v12.7h-3.4V100.4z"/>
	<path class="st0" d="M690.1,97.5h11.1v2.9h-7.7v3.4h7.6v2.9h-7.6v3.6h7.7v2.9h-11.1V97.5z"/>
	<path class="st0" d="M718.3,101.8l-4.4,11.3h-1.5l-4.4-11.3v11.3h-3.3V97.5h4.7l3.8,9.8l3.8-9.8h4.7v15.6h-3.4V101.8z"/>
</g>
</svg>
